<?xml version="1.0" encoding="utf-8"?>
<!-- Generator: Adobe Illustrator 25.0.1, SVG Export Plug-In . SVG Version: 6.00 Build 0)  -->
<svg version="1.1" id="Layer_1" xmlns="http://www.w3.org/2000/svg" xmlns:xlink="http://www.w3.org/1999/xlink" x="0px" y="0px"
	 viewBox="0 0 1734.6 1734.6" style="enable-background:new 0 0 1734.6 1734.6;" xml:space="preserve">
<style type="text/css">
	.st0{fill:#FF6900;}
	.st1{fill:none;}
	.st2{fill-rule:evenodd;clip-rule:evenodd;fill:none;}
	.st3{fill:#FFFFFF;}
</style>
<g>
	<polygon class="st0" points="433.7,1620.6 0.2,869.6 433.7,118.7 1300.8,118.7 1734.4,869.6 1300.8,1620.6 	"/>
	<circle class="st1" cx="867.3" cy="867.3" r="867.1"/>
	<circle class="st2" cx="867.3" cy="867.3" r="867.1"/>
	<g id="XMLID_13_">
		<path id="XMLID_14_" class="st3" d="M945.9,652.5c157.1,0,284.4,145,284.4,323.8s-127.4,323.8-284.4,323.8
			c-81,0-154.1-38.5-205.8-100.2v85.9H582.8V611.5v-0.1c0-21.7-17.6-39.3-39.3-39.3h-39.3V434.5h118c65.1,0,117.9,52.8,117.9,118
			v200.3C791.8,691,864.9,652.5,945.9,652.5z M1073.2,976.3c0-91.9-74.6-166.5-166.5-166.5s-166.5,74.6-166.5,166.5
			s74.6,166.5,166.5,166.5S1073.2,1068.2,1073.2,976.3z"/>
	</g>
</g>
</svg>
